<?xml version="1.0" encoding="UTF-8"?>
<svg id="Capa_1" xmlns="http://www.w3.org/2000/svg" version="1.1" viewBox="0 0 595.28 274.43">
  <defs>
    <style>
      .st0 {
        fill: #000;
      }
    </style>
  </defs>
  <path class="st0" d="M41.97,115.68c-9.9-5.07-22.88-16.31-19.02-28.47,1.14-3.59,4.69-6.8,8.59-6.32,3.55.43,6.23,3.14,8.21,5.92,5.75,8.07,5.82,15.98,10.26,24.09,1.06,1.01,2.64,1.33,4.01,1.83,11,3.97,22.53,5.76,34.13,7.23,2.99.38,5.96.42,8.92,1.01l6.07.38,7.82,1.05c2.23.3,4.41,0,6.58,1.2,1.07-.23,2.16.09,3.12.27,10.12,1.87,20.15,4.39,29.64,8.61,12.43,5.53,24.27,15.74,22.62,30.13-1.13,9.85-7.13,17.13-16.98,19.03-3.33.64-6.98.25-10.68.25l-3.45-.88c-7.79-1.99-15.11-5.76-21.76-10.6-13.4-9.77-29.04-26.24-36.85-41.02.21-.88.34-1.7-.12-2.48-9.07-.98-17.78-3.02-27.34-5.49,12.62,19.92,27.58,37.4,44.69,52.62,18.21,15.93,49.71,37.12,71.88,19.75,14.2-11.13,16.9-26.53,10.38-43.07-7.37-18.68-21.2-33.06-34.6-47.44-5.41-5.81-8.95-13.24-8.83-21.26.14-9.61,4.91-19.26,12.09-25.53s16.51-10.87,25.86-9.29c14.05,2.37,23.76,18.4,20.99,32.43,2.43,6.2,5.32,12.35,9.42,17.63,2.16,1.83,3.81,3.77,4.27,6.52-.5,3.45-2.75,5.61-5.9,6.75s-6.2.63-9.36-.3c-8.16-2.39-15.42-9.21-20.87-15.92-9.93-1.96-13.44-9.82-11.69-19.65.44-2.46,1.54-5.14,4.41-5.08,1.17.02,2.33,1.31,2.9,1.88.84,1.35.5,2.62.28,4.12-.46,3.01-1.1,6.76,1.16,9.24,2.12,2.32,6.14,2.69,8.96,1.91,5-1.38,8.75-5.11,9.23-10.37.65-7.27-2.6-14.7-8.53-19.01-4.39-3.19-10.21-3.69-15.39-1.75-5.3,1.99-10.38,5.25-13.98,9.72-4.07,5.06-6.71,11.69-6.26,18.03.47,6.66,3.67,12.02,8.15,16.6,14.73,15.06,33.17,36.39,37.46,57.19l.69,3.34c.4,4.41.65,8.99-.06,13.26-1.33,8.04-5.23,14.94-10.68,20.8-6.11,6.57-13.53,11.18-22.38,12.86-2.27.43-4.7.03-7.14.76-1.73-.56-3.27-.63-5.07-.49-19.94-2.73-39.42-16.45-54.3-29.92-17.94-16.23-36.26-37.94-47.9-59.07-.86-1.55-2.05-2.17-3.63-2.98ZM38.92,105.3c-1.07-5.32-2.97-9.8-5.43-13.94-1.04-1.13-1.65-2.5-3.2-2.92-3.99,5.28,3.46,13.47,8.63,16.86Z"/>
  <g>
    <path class="st0" d="M285.88,71.22c0,13.22-8.93,21.55-23.01,21.55h-14.68v17h-14.08v-60.1h28.76c14.08,0,23.01,8.33,23.01,21.55ZM271.88,71.31c0-5.58-3.78-9.19-9.7-9.19h-14.08v18.37h14.08c5.92,0,9.7-3.61,9.7-9.19Z"/>
    <path class="st0" d="M336.02,67.36v42.41h-11.68l-.86-5.07c-3.52,3.86-8.33,5.92-14.08,5.92-11.93,0-20.26-9.02-20.26-22.07s8.33-22.07,20.26-22.07c5.75,0,10.65,2.06,14.08,5.84l.86-4.98h11.68ZM322.71,88.57c0-6.35-4.12-10.73-10.13-10.73s-10.05,4.38-10.05,10.73,4.12,10.73,10.05,10.73,10.13-4.38,10.13-10.73Z"/>
    <path class="st0" d="M376.54,108.14c-3.61,1.8-7.21,2.49-11.25,2.49-8.67,0-15.02-4.29-15.02-16.48v-16.06h-7.21v-10.73h7.21v-10.56l13.39-1.46v12.02h10.56v10.73h-10.56v16.06c0,3.52,1.89,5.07,4.81,5.07,1.63,0,3.52-.52,4.89-1.2l3.18,10.13Z"/>
    <path class="st0" d="M379.89,88.57c0-13.22,9.01-22.15,23.27-22.15s23.35,8.93,23.35,22.15-9.02,22.15-23.35,22.15-23.27-8.93-23.27-22.15ZM413.12,88.57c0-6.18-3.95-10.73-9.96-10.73s-9.87,4.55-9.87,10.73,3.95,10.73,9.87,10.73,9.96-4.55,9.96-10.73Z"/>
    <path class="st0" d="M300.39,122.19v60.1h-13.99v-37.61l-17.69,21.64h-2.75l-17.86-21.72v37.69h-13.99v-60.1h12.62l20.52,25.59,20.52-25.59h12.62Z"/>
    <path class="st0" d="M308.54,161.09c0-13.22,9.01-22.15,23.27-22.15s23.35,8.93,23.35,22.15-9.02,22.15-23.35,22.15-23.27-8.93-23.27-22.15ZM341.77,161.09c0-6.18-3.95-10.73-9.96-10.73s-9.87,4.55-9.87,10.73,3.95,10.73,9.87,10.73,9.96-4.55,9.96-10.73Z"/>
    <path class="st0" d="M362.89,122.19h13.48v60.1h-13.48v-60.1Z"/>
    <path class="st0" d="M385.38,128.38c0-4.29,3.26-7.38,7.9-7.38s7.9,3.09,7.9,7.38-3.26,7.3-7.9,7.3-7.9-3-7.9-7.3ZM386.5,139.88h13.48v42.41h-13.48v-42.41Z"/>
    <path class="st0" d="M453.55,158.34v23.95h-13.48v-23.18c0-5.49-2.92-8.76-7.73-8.76-5.24,0-8.76,3.95-8.76,9.62v22.32h-13.48v-42.41h11.68l.86,4.98c3.18-3.78,7.98-5.92,13.65-5.92,10.47,0,17.26,7.21,17.26,19.4Z"/>
    <path class="st0" d="M507.64,139.88v42.41h-11.68l-.86-5.07c-3.52,3.86-8.33,5.92-14.08,5.92-11.93,0-20.26-9.02-20.26-22.07s8.33-22.07,20.26-22.07c5.75,0,10.65,2.06,14.08,5.84l.86-4.98h11.68ZM494.33,161.09c0-6.35-4.12-10.73-10.13-10.73s-10.05,4.38-10.05,10.73,4.12,10.73,10.05,10.73,10.13-4.38,10.13-10.73Z"/>
  </g>
  <g>
    <path class="st0" d="M235.62,200.24h8.69v1.1h-8.69v6.83h-1.16v-15.11h10.15v1.16h-8.99v6.01Z"/>
    <path class="st0" d="M246.48,202.84c0-3.38,2.41-5.54,5.41-5.54s5.41,2.16,5.41,5.54-2.41,5.45-5.41,5.45-5.41-2.07-5.41-5.45ZM256.26,202.84c0-2.76-1.96-4.55-4.37-4.55s-4.37,1.79-4.37,4.55,1.96,4.42,4.37,4.42,4.37-1.66,4.37-4.42Z"/>
    <path class="st0" d="M261.95,194.29v3.21h3.62v.88h-3.62v6.49c0,1.44.3,2.46,1.96,2.46.52,0,1.1-.17,1.64-.43l.37.86c-.67.32-1.34.54-2,.54-2.26,0-3-1.34-3-3.43v-6.49h-2.26v-.88h2.26v-3.1l1.03-.11Z"/>
    <path class="st0" d="M267.51,202.84c0-3.38,2.41-5.54,5.41-5.54s5.41,2.16,5.41,5.54-2.41,5.45-5.41,5.45-5.41-2.07-5.41-5.45ZM277.29,202.84c0-2.76-1.96-4.55-4.37-4.55s-4.37,1.79-4.37,4.55,1.96,4.42,4.37,4.42,4.37-1.66,4.37-4.42Z"/>
    <path class="st0" d="M289.32,197.07l.69.6-1.03,1.21c.75.82,1.31,1.9,1.31,3.62,0,1.85-1.1,3.73-2.87,4.53,1.87.67,2.91,1.98,2.91,3.81,0,2.87-2.24,4.25-5.06,4.25s-5.04-1.55-5.04-4.25h1.06c0,2.18,1.85,3.21,3.99,3.21s4.03-.95,4.03-3.21-2.05-3.19-4.03-3.19c-3.08,0-5-2.31-5-5.15,0-3.32,2.24-5.19,5-5.19,1.08,0,2.2.39,3.02.97l1.03-1.21ZM281.32,202.5c0,2.2,1.51,4.09,3.94,4.09,2.2,0,3.99-1.9,3.99-4.09,0-2.69-1.79-4.14-3.99-4.14s-3.94,1.36-3.94,4.14Z"/>
    <path class="st0" d="M293.45,197.5l.04,1.9c.67-1.44,2.18-2,3.53-2,.8-.02,1.57.19,2.28.63l-.47.86c-.56-.34-1.19-.5-1.81-.5-1.98.02-3.51,1.62-3.51,3.56v6.21h-1.06v-10.65h.99Z"/>
    <path class="st0" d="M311.15,197.5v10.65h-1.06v-2.26c-1.03,1.66-2.63,2.44-4.35,2.44-2.97,0-5.41-2.24-5.41-5.5s2.44-5.45,5.41-5.45c1.72,0,3.47.8,4.35,2.46v-2.33h1.06ZM301.38,202.82c0,2.67,1.94,4.46,4.35,4.46,5.93,0,5.93-8.9,0-8.9-2.41,0-4.35,1.77-4.35,4.44Z"/>
    <path class="st0" d="M315.11,208.15v-9.63h-2.18v-.93h2.18v-.95c0-2.11.84-3.64,3.19-3.64.8,0,1.51.28,2.11.73l-.52.78c-.58-.34-.99-.54-1.64-.54-1.34,0-2.11.82-2.11,2.67v.95h3.51v.93h-3.51v9.63h-1.03Z"/>
    <path class="st0" d="M321.62,195.65v-.09l1.21-2.52h1.21v.02l-1.42,2.59h-.99ZM321.73,197.46v10.69h1.06v-10.69h-1.06Z"/>
    <path class="st0" d="M335.95,197.5v10.65h-1.06v-2.26c-1.03,1.66-2.63,2.44-4.35,2.44-2.97,0-5.41-2.24-5.41-5.5s2.44-5.45,5.41-5.45c1.72,0,3.47.8,4.35,2.46v-2.33h1.06ZM326.19,202.82c0,2.67,1.94,4.46,4.35,4.46,5.93,0,5.93-8.9,0-8.9-2.41,0-4.35,1.77-4.35,4.44Z"/>
    <path class="st0" d="M340.3,207.5c0,.13-.02.24-.06.37l-.86,2.2h-.93l.67-1.79c-.28-.11-.52-.37-.52-.78,0-1.12,1.7-1.12,1.7,0Z"/>
    <path class="st0" d="M361.85,200.43c.09,3.84-2.37,7.72-7.65,7.72h-5.11v-15.09h5.11c5.11,0,7.56,3.66,7.65,7.37ZM350.26,194.16v12.87h3.94c4.48,0,6.55-3.36,6.49-6.59-.06-3.15-2.13-6.27-6.49-6.27h-3.94Z"/>
    <path class="st0" d="M365.68,194.03c0,1.12-1.7,1.12-1.7,0s1.7-1.12,1.7,0ZM364.28,197.46v10.69h1.06v-10.69h-1.06Z"/>
    <path class="st0" d="M375.66,199.44c-1.08-.95-2.13-1.12-3.32-1.12-1.66-.02-3.25.6-3.21,1.96.04,1.42,1.9,1.7,3.23,1.94,1.9.32,4.5.65,4.4,3.12-.06,2.35-2.5,2.97-4.37,2.97s-3.73-.71-4.65-2.13l.78-.69c.88,1.27,2.48,1.81,3.9,1.81,1.29,0,3.25-.34,3.32-2.03.04-1.53-1.72-1.83-3.47-2.11-2.07-.34-4.12-.73-4.14-2.87-.02-2.09,2.07-3,4.22-2.97,1.55,0,2.91.43,3.97,1.42l-.65.69Z"/>
    <path class="st0" d="M378.51,202.82c0-3.19,2.41-5.5,5.41-5.5s5.67,1.83,5.26,5.99h-9.59c.22,2.5,2.13,3.94,4.33,3.94,1.4,0,3.04-.56,3.84-1.62l.75.6c-1.03,1.36-2.89,2.05-4.59,2.05-3,0-5.41-2.09-5.41-5.47ZM388.22,202.39c-.02-2.63-1.75-4.09-4.31-4.09-2.2,0-4.09,1.49-4.33,4.09h8.64Z"/>
    <path class="st0" d="M392.94,197.5v1.9c.82-1.47,2.31-2.07,3.79-2.09,2.84,0,4.81,1.75,4.81,4.7v6.14h-1.06v-6.12c0-2.41-1.49-3.71-3.79-3.69-2.2.02-3.73,1.68-3.73,3.88v5.93h-1.06v-10.65h1.03ZM394.04,194.46c.15-1.21,1.38-1.64,2.39-1.16l.88.45c.52.22,1.14.15,1.31-.52l.73.22c-.13,1.23-1.38,1.64-2.41,1.16l-.88-.45c-.5-.22-1.12-.13-1.29.52l-.73-.22Z"/>
    <path class="st0" d="M403.8,202.84c0-3.38,2.41-5.54,5.41-5.54s5.41,2.16,5.41,5.54-2.41,5.45-5.41,5.45-5.41-2.07-5.41-5.45ZM413.59,202.84c0-2.76-1.96-4.55-4.37-4.55s-4.37,1.79-4.37,4.55,1.96,4.42,4.37,4.42,4.37-1.66,4.37-4.42Z"/>
    <path class="st0" d="M432.08,197.5l-6.49,15.09h-1.12l1.96-4.57-4.27-10.52h1.14l2.48,6.29,1.25,3.08,1.23-3.1,2.67-6.27h1.14Z"/>
    <path class="st0" d="M441.41,202.93v5.22h-1.16v-15.09h6.62c6.55,0,6.55,9.87,0,9.87h-5.45ZM441.41,194.14v7.74h5.45c5.02,0,5.02-7.74,0-7.74h-5.45Z"/>
    <path class="st0" d="M462.72,208.15v-1.92c-.82,1.47-2.31,2.07-3.79,2.09-2.84,0-4.81-1.75-4.81-4.7v-6.14h1.06v6.12c0,2.41,1.49,3.71,3.79,3.69,2.2-.02,3.73-1.68,3.73-3.88v-5.93h1.06v10.67h-1.03Z"/>
    <path class="st0" d="M467.57,193.06v6.77c.86-1.72,2.59-2.5,4.42-2.5,2.97,0,5.34,1.98,5.34,5.5s-2.35,5.5-5.32,5.5c-1.81,0-3.56-.9-4.44-2.52v2.35h-1.03v-15.09h1.03ZM467.59,202.8c0,2.65,1.85,4.48,4.35,4.48s4.35-1.51,4.35-4.46-1.96-4.48-4.35-4.48-4.35,1.81-4.35,4.46Z"/>
    <path class="st0" d="M480.97,193.06v15.09h-1.06v-15.09h1.06Z"/>
    <path class="st0" d="M485.32,194.03c0,1.12-1.7,1.12-1.7,0s1.7-1.12,1.7,0ZM483.92,197.46v10.69h1.06v-10.69h-1.06Z"/>
    <path class="st0" d="M496.72,206.66c-1.08,1.08-2.48,1.59-3.88,1.59-3,0-5.47-2.07-5.47-5.43s2.39-5.43,5.47-5.43c1.4,0,2.8.54,3.88,1.59l-.69.67c-.86-.86-2.05-1.27-3.19-1.27-2.41,0-4.44,1.57-4.44,4.44s2.03,4.44,4.44,4.44c1.14,0,2.31-.45,3.17-1.31l.71.71Z"/>
    <path class="st0" d="M500.28,194.03c0,1.12-1.7,1.12-1.7,0s1.7-1.12,1.7,0ZM498.87,197.46v10.69h1.06v-10.69h-1.06Z"/>
    <path class="st0" d="M513.16,193.06v15.09h-1.03v-2.35c-.88,1.62-2.63,2.52-4.44,2.52-2.97,0-5.32-1.96-5.32-5.5s2.37-5.5,5.34-5.5c1.83,0,3.56.78,4.42,2.5v-6.77h1.03ZM503.4,202.82c0,2.95,1.96,4.46,4.35,4.46s4.35-1.83,4.35-4.48-1.9-4.46-4.35-4.46-4.35,1.49-4.35,4.48Z"/>
    <path class="st0" d="M526.44,197.5v10.65h-1.06v-2.26c-1.03,1.66-2.63,2.44-4.35,2.44-2.97,0-5.41-2.24-5.41-5.5s2.44-5.45,5.41-5.45c1.72,0,3.47.8,4.35,2.46v-2.33h1.06ZM516.67,202.82c0,2.67,1.94,4.46,4.35,4.46,5.93,0,5.93-8.9,0-8.9-2.41,0-4.35,1.77-4.35,4.44Z"/>
    <path class="st0" d="M539.52,193.06v15.09h-1.03v-2.35c-.88,1.62-2.63,2.52-4.44,2.52-2.97,0-5.32-1.96-5.32-5.5s2.37-5.5,5.34-5.5c1.83,0,3.56.78,4.42,2.5v-6.77h1.03ZM529.75,202.82c0,2.95,1.96,4.46,4.35,4.46s4.35-1.83,4.35-4.48-1.9-4.46-4.35-4.46-4.35,1.49-4.35,4.48Z"/>
    <path class="st0" d="M543.85,207.5c0,1.12-1.7,1.12-1.7,0s1.7-1.12,1.7,0Z"/>
  </g>
</svg>
