<svg xmlns="http://www.w3.org/2000/svg" viewBox="-25 -10 260 260">
  <circle cx="105" cy="120" r="130" fill="#fff"/>
  <path fill="#000" d="M41.97,115.68c-9.9-5.07-22.88-16.31-19.02-28.47,1.14-3.59,4.69-6.8,8.59-6.32,3.55.43,6.23,3.14,8.21,5.92,5.75,8.07,5.82,15.98,10.26,24.09,1.06,1.01,2.64,1.33,4.01,1.83,11,3.97,22.53,5.76,34.13,7.23,2.99.38,5.96.42,8.92,1.01l6.07.38,7.82,1.05c2.23.3,4.41,0,6.58,1.2,1.07-.23,2.16.09,3.12.27,10.12,1.87,20.15,4.39,29.64,8.61,12.43,5.53,24.27,15.74,22.62,30.13-1.13,9.85-7.13,17.13-16.98,19.03-3.33.64-6.98.25-10.68.25l-3.45-.88c-7.79-1.99-15.11-5.76-21.76-10.6-13.4-9.77-29.04-26.24-36.85-41.02.21-.88.34-1.7-.12-2.48-9.07-.98-17.78-3.02-27.34-5.49,12.62,19.92,27.58,37.4,44.69,52.62,18.21,15.93,49.71,37.12,71.88,19.75,14.2-11.13,16.9-26.53,10.38-43.07-7.37-18.68-21.2-33.06-34.6-47.44-5.41-5.81-8.95-13.24-8.83-21.26.14-9.61,4.91-19.26,12.09-25.53s16.51-10.87,25.86-9.29c14.05,2.37,23.76,18.4,20.99,32.43,2.43,6.2,5.32,12.35,9.42,17.63,2.16,1.83,3.81,3.77,4.27,6.52-.5,3.45-2.75,5.61-5.9,6.75s-6.2.63-9.36-.3c-8.16-2.39-15.42-9.21-20.87-15.92-9.93-1.96-13.44-9.82-11.69-19.65.44-2.46,1.54-5.14,4.41-5.08,1.17.02,2.33,1.31,2.9,1.88.84,1.35.5,2.62.28,4.12-.46,3.01-1.1,6.76,1.16,9.24,2.12,2.32,6.14,2.69,8.96,1.91,5-1.38,8.75-5.11,9.23-10.37.65-7.27-2.6-14.7-8.53-19.01-4.39-3.19-10.21-3.69-15.39-1.75-5.3,1.99-10.38,5.25-13.98,9.72-4.07,5.06-6.71,11.69-6.26,18.03.47,6.66,3.67,12.02,8.15,16.6,14.73,15.06,33.17,36.39,37.46,57.19l.69,3.34c.4,4.41.65,8.99-.06,13.26-1.33,8.04-5.23,14.94-10.68,20.8-6.11,6.57-13.53,11.18-22.38,12.86-2.27.43-4.7.03-7.14.76-1.73-.56-3.27-.63-5.07-.49-19.94-2.73-39.42-16.45-54.3-29.92-17.94-16.23-36.26-37.94-47.9-59.07-.86-1.55-2.05-2.17-3.63-2.98ZM38.92,105.3c-1.07-5.32-2.97-9.8-5.43-13.94-1.04-1.13-1.65-2.5-3.2-2.92-3.99,5.28,3.46,13.47,8.63,16.86Z"/>
</svg>
